<?xml version="1.0" encoding="utf-8"?>
<!-- Generator: Adobe Illustrator 16.0.4, SVG Export Plug-In . SVG Version: 6.00 Build 0)  -->
<!DOCTYPE svg PUBLIC "-//W3C//DTD SVG 1.1//EN" "http://www.w3.org/Graphics/SVG/1.1/DTD/svg11.dtd">
<svg version="1.1" id="Layer_1" xmlns="http://www.w3.org/2000/svg" xmlns:xlink="http://www.w3.org/1999/xlink" x="0px" y="0px"
	 width="395.55px" height="113.393px" viewBox="0 0 395.55 113.393" enable-background="new 0 0 395.55 113.393"
	 xml:space="preserve">
<polygon fill="#01579B" points="331.249,-0.002 331.249,25.328 317.299,25.328 "/>
<polygon fill="#01579B" points="124.697,27.289 124.697,85.744 88.319,85.744 73.568,69.94 70.139,66.26 70.139,27.289 
	89.624,27.289 89.624,66.26 105.212,66.26 105.212,27.289 "/>
<polygon opacity="0.5" fill="#BE1E2D" points="229.919,54.567 229.919,85.744 196.792,85.744 181.206,70.156 181.206,7.804 
	200.691,7.804 200.691,38.979 210.434,38.979 224.073,49.891 226.022,51.451 "/>
<path fill="#01579B" d="M226.02,51.448l-1.95-1.56l-13.641-10.91h-9.739V7.808h-19.48v62.35l15.58,15.59h33.13v-31.18L226.02,51.448
	z M200.689,54.568h9.739v15.59h-9.739V54.568z"/>
<rect x="148.079" y="42.877" opacity="0.5" fill="#BE1E2D" width="9.743" height="7.794"/>
<path fill="#FFFFFF" d="M375.399-0.002h-44.15v25.33h-32.46l-11.38,11.38l-17.23-17.22h-24l-20.149,20.14v1.84l-12.86-10.29h-4.68
	v-31.18h-35.07v27.94l-8.46-8.45h-24l-8.46,8.45v-8.45h-63.01l-19.49-19.49h-25.95l-24.05,24.05v45.44l24.05,24.04h108.45v-8.46
	l8.46,8.46h44.15v-8.46l8.46,8.46h44.15v-8.46l8.46,8.46h44.15v-6.51l7.79,6.51h79.89l17.54-18.2v-55.18L375.399-0.002z
	 M27.279,85.738l-19.49-19.49v-38.97l19.49-19.48h19.49l19.48,19.48v38.97l-3.9,3.9l13.64,15.59H27.279z M124.709,85.738h-36.38
	l-18.18-19.49v-38.97h19.48v38.97h15.59v-38.97h19.49V85.738z M177.319,62.348h-29.23v7.801h29.23v15.59h-33.13l-15.59-15.58v-27.28
	l15.58-15.59l0.01-0.01h17.54l15.59,15.59V62.348z M229.929,85.738h-33.13l-15.59-15.58V7.798h19.49v31.17h9.74l13.64,10.91
	l1.95,1.56l3.899,3.12V85.738z M282.539,62.348h-29.23v7.801h29.23v15.59h-33.13l-15.59-15.58v-27.29l15.59-15.58v-0.01h17.54
	l15.59,15.59V62.348z M335.149,46.768h-29.23v25.33h29.23v13.641h-33.13l-15.591-15.58v-21.45l15.58-15.57l0.011-0.01h33.13V46.768z
	 M387.759,70.148l-15.59,15.59h-33.13V72.098h29.23v-19.49h-29.23v-13.64h29.23v-17.53h-29.23V7.798h33.13l15.59,15.58V70.148z"/>
<polygon fill="#01579B" points="387.748,23.391 387.748,70.156 372.16,85.744 339.035,85.744 339.035,72.105 368.264,72.105 
	368.264,52.619 339.035,52.619 339.035,38.979 368.264,38.979 368.264,21.443 339.035,21.443 339.035,7.804 372.16,7.804 "/>
<polygon fill="#01579B" points="305.911,46.773 305.911,72.105 335.139,72.105 335.139,85.744 302.014,85.744 286.426,70.156 
	286.426,48.722 302.014,33.134 335.139,33.134 335.139,46.773 "/>
<path fill="#01579B" d="M161.719,27.288h-17.54l-15.58,15.59v27.28l15.58,15.59h33.13v-15.59h-29.23v-7.8h29.23v-19.48
	L161.719,27.288z M148.079,50.668v-7.79h9.74v7.79H148.079z"/>
<path fill="#01579B" d="M62.349,70.148l3.9-3.9v-38.97l-19.48-19.48h-19.49l-19.49,19.48v38.97l19.49,19.49h48.71L62.349,70.148z
	 M46.769,66.248h-19.49v-38.97h19.49V66.248z"/>
<rect x="27.279" y="27.279" fill="#FFFFFF" width="19.486" height="38.969"/>
<rect x="148.079" y="42.877" fill="#FFFFFF" width="9.743" height="7.794"/>
<rect x="200.691" y="54.567" fill="#FFFFFF" width="9.742" height="15.589"/>
<polygon fill="#01579B" points="253.301,62.362 253.301,70.156 282.528,70.156 282.528,85.744 249.404,85.744 233.815,70.156 
	233.815,42.877 249.404,27.289 266.939,27.289 282.528,42.877 282.528,62.362 "/>
<rect x="253.301" y="42.877" fill="#FFFFFF" width="9.742" height="7.794"/>
<polygon fill="#01579B" points="141.631,113.393 132.491,93.539 24.037,93.539 47.906,113.393 "/>
<polygon fill="#034A7A" points="140.947,105.23 141.631,113.393 132.491,93.539 132.491,85.083 136.175,93.539 "/>
<polygon fill="#034A7A" points="246.169,93.539 239.855,113.393 234.028,107.685 237.713,93.539 237.713,85.083 "/>
<polygon fill="#01579B" points="290.322,93.539 280.386,109.554 278.008,113.393 239.855,113.393 246.169,93.539 "/>
<polygon fill="#01579B" points="378.006,93.539 353.786,113.393 284.751,113.393 298.116,93.539 "/>
<polygon fill="#034A7A" points="140.947,105.23 136.175,93.539 132.491,85.083 140.947,93.539 148.938,113.393 "/>
<line fill="none" x1="239.855" y1="113.393" x2="239.855" y2="113.393"/>
<polygon fill="#034A7A" points="298.116,93.539 284.751,113.393 280.386,109.554 290.322,93.539 290.322,87.03 "/>
<path fill="none" d="M283.142,113.481"/>
<polygon fill="#01579B" points="187.089,113.393 185.103,93.539 140.947,93.539 148.938,113.393 "/>
<polygon fill="#01579B" points="237.713,93.539 234.028,107.685 232.549,113.393 194.396,113.393 193.558,93.539 "/>
<polygon fill="#034A7A" points="194.396,113.393 187.089,107.117 185.902,93.539 185.103,85.083 193.558,93.539 "/>
<polygon fill="#034A7A" points="187.089,106.653 187.089,113.393 185.103,93.539 185.103,85.083 185.902,93.539 "/>
<path fill="none" d="M187.089,113.393"/>
<line fill="none" x1="239.855" y1="113.393" x2="234.028" y2="107.685"/>
</svg>
