<?xml version="1.0" encoding="UTF-8"?>
<svg width="396px" height="94px" viewBox="0 0 396 94" version="1.1" xmlns="http://www.w3.org/2000/svg" xmlns:xlink="http://www.w3.org/1999/xlink">
    <!-- Generator: Sketch 47.1 (45422) - http://www.bohemiancoding.com/sketch -->
    <title>logo</title>
    <desc>Created with Sketch.</desc>
    <defs></defs>
    <g id="Page-1" stroke="none" stroke-width="1" fill="none" fill-rule="evenodd">
        <g id="logo" transform="translate(0.000000, -1.000000)" fill-rule="nonzero">
            <rect id="Rectangle-path" fill="#BE1E2D" opacity="0.5" x="148.079" y="43.877" width="9.743" height="7.794"></rect>
            <path d="M375.399,0.998 L331.249,0.998 L331.249,26.328 L298.789,26.328 L287.409,37.708 L270.179,20.488 L246.179,20.488 L226.03,40.628 L226.03,42.468 L213.17,32.178 L208.49,32.178 L208.49,0.998 L173.42,0.998 L173.42,28.938 L164.96,20.488 L140.96,20.488 L132.5,28.938 L132.5,20.488 L69.49,20.488 L50,0.998 L24.05,0.998 L0,25.048 L0,70.488 L24.05,94.528 L132.5,94.528 L132.5,86.068 L140.96,94.528 L185.11,94.528 L185.11,86.068 L193.57,94.528 L237.72,94.528 L237.72,86.068 L246.18,94.528 L290.33,94.528 L290.33,88.018 L298.12,94.528 L378.01,94.528 L395.55,76.328 L395.55,21.148 L375.399,0.998 Z M27.279,86.738 L7.789,67.248 L7.789,28.278 L27.279,8.798 L46.769,8.798 L66.249,28.278 L66.249,67.248 L62.349,71.148 L75.989,86.738 L27.279,86.738 L27.279,86.738 Z M124.709,86.738 L88.329,86.738 L70.149,67.248 L70.149,28.278 L89.629,28.278 L89.629,67.248 L105.219,67.248 L105.219,28.278 L124.709,28.278 L124.709,86.738 Z M177.319,63.348 L148.089,63.348 L148.089,71.149 L177.319,71.149 L177.319,86.739 L144.189,86.739 L128.599,71.159 L128.599,43.879 L144.179,28.289 L144.189,28.279 L161.729,28.279 L177.319,43.869 L177.319,63.348 Z M229.929,86.738 L196.799,86.738 L181.209,71.158 L181.209,8.798 L200.699,8.798 L200.699,39.968 L210.439,39.968 L224.079,50.878 L226.029,52.438 L229.928,55.558 L229.928,86.738 L229.929,86.738 Z M282.539,63.348 L253.309,63.348 L253.309,71.149 L282.539,71.149 L282.539,86.739 L249.409,86.739 L233.819,71.159 L233.819,43.869 L249.409,28.289 L249.409,28.279 L266.949,28.279 L282.539,43.869 L282.539,63.348 Z M335.149,47.768 L305.919,47.768 L305.919,73.098 L335.149,73.098 L335.149,86.739 L302.019,86.739 L286.428,71.159 L286.428,49.709 L302.008,34.139 L302.019,34.129 L335.149,34.129 L335.149,47.768 Z M387.759,71.148 L372.169,86.738 L339.039,86.738 L339.039,73.098 L368.269,73.098 L368.269,53.608 L339.039,53.608 L339.039,39.968 L368.269,39.968 L368.269,22.438 L339.039,22.438 L339.039,8.798 L372.169,8.798 L387.759,24.378 L387.759,71.148 Z" id="Shape" fill="#FFFFFF"></path>
            <rect id="Rectangle-path" fill="#FFFFFF" x="27.279" y="28.279" width="19.486" height="38.969"></rect>
            <rect id="Rectangle-path" fill="#FFFFFF" x="148.079" y="43.877" width="9.743" height="7.794"></rect>
            <rect id="Rectangle-path" fill="#FFFFFF" x="200.691" y="55.567" width="9.742" height="15.589"></rect>
            <rect id="Rectangle-path" fill="#FFFFFF" x="253.301" y="43.877" width="9.742" height="7.794"></rect>
        </g>
    </g>
</svg>